# This file uses centimeters as units for non-parametric coordinates.

mtllib wall.mtl
g default
v -4.701763 -4.813951 0.500000
v 4.701763 -4.813951 0.500000
v -4.701763 4.813951 0.500000
v 4.701763 4.813951 0.500000
v -4.701763 4.813951 -0.500000
v 4.701763 4.813951 -0.500000
v -4.701763 -4.813951 -0.500000
v 4.701763 -4.813951 -0.500000
vt 0.003205 0.005584
vt 0.996795 0.005584
vt 0.003205 0.999174
vt 0.996795 0.999174
vt 0.003205 1.992764
vt 0.996795 1.992764
vt 0.003205 2.986354
vt 0.996795 2.986354
vt 0.003205 3.979944
vt 0.996795 3.979944
vt 1.990385 0.005584
vt 1.990385 0.999174
vt -0.990385 0.005584
vt -0.990385 0.999174
vn 0.000000 0.000000 1.000000
vn 0.000000 0.000000 1.000000
vn 0.000000 0.000000 1.000000
vn 0.000000 0.000000 1.000000
vn 0.000000 1.000000 0.000000
vn 0.000000 1.000000 0.000000
vn 0.000000 1.000000 0.000000
vn 0.000000 1.000000 0.000000
vn 0.000000 0.000000 -1.000000
vn 0.000000 0.000000 -1.000000
vn 0.000000 0.000000 -1.000000
vn 0.000000 0.000000 -1.000000
vn 0.000000 -1.000000 0.000000
vn 0.000000 -1.000000 0.000000
vn 0.000000 -1.000000 0.000000
vn 0.000000 -1.000000 0.000000
vn 1.000000 0.000000 0.000000
vn 1.000000 0.000000 0.000000
vn 1.000000 0.000000 0.000000
vn 1.000000 0.000000 0.000000
vn -1.000000 0.000000 0.000000
vn -1.000000 0.000000 0.000000
vn -1.000000 0.000000 0.000000
vn -1.000000 0.000000 0.000000
s off
g pCube1
usemtl initialShadingGroup
f 1/1/1 2/2/2 4/4/3 3/3/4
f 3/3/5 4/4/6 6/6/7 5/5/8
f 5/5/9 6/6/10 8/8/11 7/7/12
f 7/7/13 8/8/14 2/10/15 1/9/16
f 2/2/17 8/11/18 6/12/19 4/4/20
f 7/13/21 1/1/22 3/3/23 5/14/24
